<mxfile host="app.diagrams.net" modified="2020-12-05T23:51:30.960Z" agent="5.0 (Windows NT 10.0; Win64; x64) AppleWebKit/537.36 (KHTML, like Gecko) Chrome/87.0.4280.88 Safari/537.36" etag="Iywi-hZcQY0KZtyJQ51a" version="13.10.9" type="github">
  <diagram id="07fea595-8f29-1299-0266-81d95cde20df" name="Page-1">
    <mxGraphModel dx="-262" dy="269" grid="1" gridSize="10" guides="1" tooltips="1" connect="1" arrows="1" fold="1" page="1" pageScale="1" pageWidth="1169" pageHeight="827" background="#ffffff" math="0" shadow="0">
      <root>
        <mxCell id="0" />
        <mxCell id="1" parent="0" />
        <mxCell id="727" value="" style="edgeStyle=none;html=1;fontColor=#000000;strokeWidth=3;strokeColor=#000000;" parent="1" edge="1">
          <mxGeometry width="100" height="100" relative="1" as="geometry">
            <mxPoint x="2437.5" y="1594.5" as="sourcePoint" />
            <mxPoint x="2437.5" y="1114.5" as="targetPoint" />
          </mxGeometry>
        </mxCell>
        <mxCell id="734" value="" style="edgeStyle=none;html=1;fontColor=#000000;strokeWidth=3;strokeColor=#000000;" parent="1" edge="1">
          <mxGeometry width="100" height="100" relative="1" as="geometry">
            <mxPoint x="2437.5" y="1594.5" as="sourcePoint" />
            <mxPoint x="3357.5" y="1594.5" as="targetPoint" />
          </mxGeometry>
        </mxCell>
        <mxCell id="749" value="&lt;font style=&quot;font-size: 30px&quot;&gt;CLEAN CODE VS DIRTY CODE&lt;/font&gt;" style="text;spacingTop=-5;align=center;verticalAlign=middle;fontSize=30;fontStyle=1;html=1;points=[]" parent="1" vertex="1">
          <mxGeometry x="2518" y="1020" width="810" height="45" as="geometry" />
        </mxCell>
        <mxCell id="6FLkN_Jf2ulSdnwluz88-752" value="" style="curved=1;endArrow=classic;html=1;fillColor=#e51400;strokeColor=#B20000;strokeWidth=4;" edge="1" parent="1">
          <mxGeometry width="50" height="50" relative="1" as="geometry">
            <mxPoint x="2480" y="1530" as="sourcePoint" />
            <mxPoint x="3290" y="1500" as="targetPoint" />
            <Array as="points">
              <mxPoint x="2560" y="1170" />
              <mxPoint x="2840" y="1180" />
            </Array>
          </mxGeometry>
        </mxCell>
        <mxCell id="6FLkN_Jf2ulSdnwluz88-753" value="" style="curved=1;endArrow=classic;html=1;fillColor=#008a00;strokeColor=#005700;strokeWidth=4;" edge="1" parent="1">
          <mxGeometry width="50" height="50" relative="1" as="geometry">
            <mxPoint x="2480" y="1530" as="sourcePoint" />
            <mxPoint x="3280" y="1200" as="targetPoint" />
            <Array as="points">
              <mxPoint x="2750" y="1340" />
              <mxPoint x="2830" y="1290" />
            </Array>
          </mxGeometry>
        </mxCell>
        <mxCell id="6FLkN_Jf2ulSdnwluz88-754" value="&lt;font style=&quot;font-size: 20px&quot; face=&quot;Times New Roman&quot;&gt;&lt;b&gt;TIME&lt;/b&gt;&lt;/font&gt;" style="text;html=1;strokeColor=none;fillColor=none;align=center;verticalAlign=middle;whiteSpace=wrap;rounded=0;" vertex="1" parent="1">
          <mxGeometry x="2760" y="1620" width="200" height="20" as="geometry" />
        </mxCell>
        <mxCell id="6FLkN_Jf2ulSdnwluz88-755" value="&lt;font style=&quot;font-size: 20px&quot; face=&quot;Times New Roman&quot;&gt;&lt;b&gt;WORKING CODE, OUTPUT&lt;/b&gt;&lt;/font&gt;" style="text;html=1;strokeColor=none;fillColor=none;align=center;verticalAlign=middle;whiteSpace=wrap;rounded=0;rotation=-90;" vertex="1" parent="1">
          <mxGeometry x="2250" y="1290" width="280" height="20" as="geometry" />
        </mxCell>
        <mxCell id="6FLkN_Jf2ulSdnwluz88-756" value="&lt;font color=&quot;#ff0000&quot; style=&quot;font-size: 16px&quot;&gt;Dirty Code&lt;/font&gt;" style="text;html=1;strokeColor=none;fillColor=none;align=center;verticalAlign=middle;whiteSpace=wrap;rounded=0;" vertex="1" parent="1">
          <mxGeometry x="2670" y="1210" width="100" height="50" as="geometry" />
        </mxCell>
        <mxCell id="6FLkN_Jf2ulSdnwluz88-758" value="&lt;font style=&quot;font-size: 16px&quot; color=&quot;#009900&quot;&gt;Clean Code&lt;/font&gt;" style="text;html=1;strokeColor=none;fillColor=none;align=center;verticalAlign=middle;whiteSpace=wrap;rounded=0;" vertex="1" parent="1">
          <mxGeometry x="2810" y="1320" width="100" height="50" as="geometry" />
        </mxCell>
      </root>
    </mxGraphModel>
  </diagram>
</mxfile>
